<svg width="88" height="88" viewBox="0 0 88 88" fill="none" xmlns="http://www.w3.org/2000/svg" role="img" aria-label="Avicultura">
  <circle cx="44" cy="44" r="43" fill="url(#bg)" stroke="rgba(255,255,255,0.35)"/>
  <path d="M27 56C27 43.9 34.4 34.5 45.5 31.2C44.3 35.2 45.7 39.9 49.2 42.8C46.4 44.8 43.5 47.5 41.3 51.3C38.9 55.3 38.2 58.8 38 61H29.8C28.2 59.6 27 58 27 56Z" fill="#F4FFF9"/>
  <path d="M51.2 30.2C57.3 30.2 62.7 33.1 66.1 37.5C61.9 36.9 57.8 39.2 56 43.1C53.2 41.2 49.1 40.4 44.7 41.1C47.2 36.4 49.8 32.7 51.2 30.2Z" fill="#E8FFF3" opacity="0.92"/>
  <circle cx="55.2" cy="36.8" r="1.6" fill="#0F6D3A"/>
  <defs>
    <linearGradient id="bg" x1="16" y1="8" x2="73" y2="84" gradientUnits="userSpaceOnUse">
      <stop stop-color="#3B9B63"/>
      <stop offset="1" stop-color="#1E6D43"/>
    </linearGradient>
  </defs>
</svg>
